# xmcd CD database file
#
# Track frame offsets:
#	150
#	17999
#	35243
#	54443
#	72818
#	92618
#	113318
#	132068
#	148305
#	168180
#	188205
#	209205
#	227055
#
# Disc length: 3306 seconds
#
# Revision: 8
# Processed by: cddbd v1.5.2PL0 Copyright (c) Steve Scherf et al.
# Submitted via: CDex 1.50
#
DISCID=b80ce80d
DTITLE=Stefany Band - Enamorado Voy
DYEAR=2009
DGENRE=Merengue
TTITLE0=Enamorado Voy
TTITLE1=Colgando En Tus Manos (Feat. Diveana)
TTITLE2=Si Te Vas
TTITLE3=Vuelve
TTITLE4=Porque Te Marchas
TTITLE5=El Baile De La Tizana (Merengue)
TTITLE6=No Puedo Olvidar
TTITLE7=Vuelve (Pop)
TTITLE8=En Carne Viva
TTITLE9=Huellas
TTITLE10=El Baile De La Tizana (Rap)
TTITLE11=Dale Mambo
TTITLE12=La Peladera
EXTD=YEAR: 2009
EXTT0=
EXTT1=
EXTT2=
EXTT3=
EXTT4=
EXTT5=
EXTT6=
EXTT7=
EXTT8=
EXTT9=
EXTT10=
EXTT11=
EXTT12=
PLAYORDER=
